<svg xmlns="http://www.w3.org/2000/svg" viewBox="0 0 900 440" width="900" height="440" role="img" aria-labelledby="t d" font-family="'Inter', system-ui, -apple-system, sans-serif">
<title id="t">Anatomy of the AI Asset Manager</title><desc id="d">A saved-sessions rail on the left, a conversation in the centre with a question and an answer containing a generated chart, and a message composer along the bottom.</desc>
<defs>
  <marker id="a" viewBox="0 0 10 10" refX="9" refY="5" markerWidth="6" markerHeight="6" orient="auto-start-reverse">
    <path d="M0,1 L9,5 L0,9 z" fill="#63696c"/>
  </marker>
  <marker id="ag" viewBox="0 0 10 10" refX="9" refY="5" markerWidth="6" markerHeight="6" orient="auto-start-reverse">
    <path d="M0,1 L9,5 L0,9 z" fill="#459e6b"/>
  </marker>
</defs>
<rect width="900" height="440" rx="10" fill="#0b0c0d"/>
<text x="28" y="32" fill="#63696c" font-size="9" font-family="'Inter', system-ui, -apple-system, sans-serif" font-weight="600" text-anchor="start" letter-spacing="0.8">THE AI ASSET MANAGER WORKSPACE</text><rect x="28" y="48" width="180" height="360" rx="8" fill="#111315" stroke="#232729" stroke-width="1"/><text x="44" y="70" fill="#63696c" font-size="9" font-family="'Inter', system-ui, -apple-system, sans-serif" font-weight="600" text-anchor="start" letter-spacing="0.8">SESSIONS</text><rect x="40" y="82" width="156" height="34" rx="6" fill="rgba(69,158,107,0.14)" stroke="rgba(69,158,107,0.45)" stroke-width="1"/><rect x="52" y="94" width="100" height="6" rx="3" fill="rgba(69,158,107,0.45)" stroke="none" stroke-width="0"/><rect x="52" y="104" width="66" height="6" rx="3" fill="#1b1e20" stroke="none" stroke-width="0"/><rect x="40" y="124" width="156" height="34" rx="6" fill="#16191b" stroke="none" stroke-width="0"/><rect x="52" y="136" width="86" height="6" rx="3" fill="#1b1e20" stroke="none" stroke-width="0"/><rect x="52" y="146" width="58" height="6" rx="3" fill="#1b1e20" stroke="none" stroke-width="0"/><rect x="40" y="166" width="156" height="34" rx="6" fill="#16191b" stroke="none" stroke-width="0"/><rect x="52" y="178" width="72" height="6" rx="3" fill="#1b1e20" stroke="none" stroke-width="0"/><rect x="52" y="188" width="50" height="6" rx="3" fill="#1b1e20" stroke="none" stroke-width="0"/><rect x="224" y="48" width="648" height="300" rx="8" fill="#111315" stroke="#232729" stroke-width="1"/><rect x="244" y="68" width="300" height="46" rx="8" fill="#16191b" stroke="#232729" stroke-width="1"/><text x="258" y="88" fill="#9aa0a3" font-size="11" font-family="'Inter', system-ui, -apple-system, sans-serif" font-weight="400" text-anchor="start">What is my biggest concentration risk</text><text x="258" y="104" fill="#9aa0a3" font-size="11" font-family="'Inter', system-ui, -apple-system, sans-serif" font-weight="400" text-anchor="start">right now?</text><rect x="320" y="128" width="532" height="196" rx="8" fill="#0b0c0d" stroke="#232729" stroke-width="1"/><rect x="340" y="150" width="432" height="6" rx="3" fill="#1b1e20" stroke="none" stroke-width="0"/><rect x="340" y="164" width="345.59999999999997" height="6" rx="3" fill="#1b1e20" stroke="none" stroke-width="0"/><rect x="340" y="178" width="403.2" height="6" rx="3" fill="#1b1e20" stroke="none" stroke-width="0"/><rect x="340" y="202" width="492" height="104" rx="6" fill="#16191b" stroke="#232729" stroke-width="1"/><text x="354" y="222" fill="#63696c" font-size="9" font-family="'Inter', system-ui, -apple-system, sans-serif" font-weight="600" text-anchor="start" letter-spacing="0.8">GENERATED CHART</text><rect x="370" y="270.4" width="46" height="25.6" rx="3" fill="#2f3437" stroke="none" stroke-width="0"/><rect x="462" y="249.92000000000002" width="46" height="46.08" rx="3" fill="#2f3437" stroke="none" stroke-width="0"/><rect x="554" y="260.8" width="46" height="35.2" rx="3" fill="#2f3437" stroke="none" stroke-width="0"/><rect x="646" y="240.96" width="46" height="55.04" rx="3" fill="#459e6b" stroke="none" stroke-width="0"/><rect x="738" y="276.8" width="46" height="19.2" rx="3" fill="#2f3437" stroke="none" stroke-width="0"/><rect x="224" y="360" width="648" height="48" rx="8" fill="#111315" stroke="#232729" stroke-width="1"/><text x="246" y="389" fill="#63696c" font-size="11" font-family="'Inter', system-ui, -apple-system, sans-serif" font-weight="400" text-anchor="start">Ask about your holdings…</text><rect x="772" y="374" width="74" height="22" rx="5" fill="rgba(69,158,107,0.14)" stroke="rgba(69,158,107,0.45)" stroke-width="1"/><text x="809" y="388.5" fill="#459e6b" font-size="10" font-family="'Inter', system-ui, -apple-system, sans-serif" font-weight="500" text-anchor="middle">Send</text><circle cx="210" cy="100" r="9" fill="rgba(69,158,107,0.14)" stroke="#459e6b" stroke-width="1"/><text x="210" y="103.5" fill="#459e6b" font-size="10" font-family="'Inter', system-ui, -apple-system, sans-serif" font-weight="600" text-anchor="middle">1</text><circle cx="560" cy="92" r="9" fill="rgba(69,158,107,0.14)" stroke="#459e6b" stroke-width="1"/><text x="560" y="95.5" fill="#459e6b" font-size="10" font-family="'Inter', system-ui, -apple-system, sans-serif" font-weight="600" text-anchor="middle">2</text><circle cx="300" cy="226" r="9" fill="rgba(69,158,107,0.14)" stroke="#459e6b" stroke-width="1"/><text x="300" y="229.5" fill="#459e6b" font-size="10" font-family="'Inter', system-ui, -apple-system, sans-serif" font-weight="600" text-anchor="middle">3</text><text x="28" y="428" fill="#63696c" font-size="10.5" font-family="'Inter', system-ui, -apple-system, sans-serif" font-weight="400" text-anchor="start">1 Saved sessions   ·   2 What you ask   ·   3 The answer, grounded in your actual positions</text>
</svg>
