<svg xmlns="http://www.w3.org/2000/svg" viewBox="0 0 940 500" role="img" aria-labelledby="profileanatomy-t profileanatomy-d" font-family="'Inter', system-ui, -apple-system, sans-serif">
<title id="profileanatomy-t">Anatomy of the Profile page</title><desc id="profileanatomy-d">Panels showing a risk score ring, an AI verdict, a behavioural fingerprint radar, a list of repeating patterns with frequency bars, a win-rate heatmap by weekday and hour, and a year-long activity heatmap.</desc>
<defs>
  <marker id="profileanatomy-arrow" viewBox="0 0 10 10" refX="9" refY="5" markerWidth="5" markerHeight="5" orient="auto-start-reverse">
    <path d="M0,1.5 L8,5 L0,8.5 z" fill="#3d4144"/>
  </marker>
</defs>
<rect width="940" height="500" rx="10" fill="#0a0b0c"/>
<text x="28" y="32" fill="#6b7073" font-size="9" font-family="'Inter', system-ui, -apple-system, sans-serif" font-weight="600" text-anchor="start" letter-spacing="0.8">THE PROFILE PAGE: WHAT EACH PANEL MEASURES</text><rect x="28" y="48" width="290" height="132" rx="8" fill="#101113" stroke="#2a2d2f" stroke-width="1"/><text x="46" y="70" fill="#6b7073" font-size="9" font-family="'Inter', system-ui, -apple-system, sans-serif" font-weight="600" text-anchor="start" letter-spacing="0.8">RISK SCORE</text><circle cx="100" cy="128" r="34" fill="none" stroke="#1e2022" stroke-width="9"/><circle cx="100" cy="128" r="34" fill="none" stroke="#459e6b" stroke-width="9" stroke-linecap="round" stroke-dasharray="141.0 213.6" transform="rotate(-90 100 128)"/><text x="100" y="133" fill="#6b7073" font-size="11" font-family="'JetBrains Mono', ui-monospace, 'SF Mono', monospace" font-weight="400" text-anchor="middle">0–100</text><text x="158" y="118" fill="#9aa0a3" font-size="10.5" font-family="'Inter', system-ui, -apple-system, sans-serif" font-weight="400" text-anchor="start">A single read on how</text><text x="158" y="134" fill="#9aa0a3" font-size="10.5" font-family="'Inter', system-ui, -apple-system, sans-serif" font-weight="400" text-anchor="start">safely you are trading</text><text x="158" y="150" fill="#9aa0a3" font-size="10.5" font-family="'Inter', system-ui, -apple-system, sans-serif" font-weight="400" text-anchor="start">right now.</text><rect x="334" y="48" width="290" height="132" rx="8" fill="#101113" stroke="#2a2d2f" stroke-width="1"/><text x="352" y="70" fill="#6b7073" font-size="9" font-family="'Inter', system-ui, -apple-system, sans-serif" font-weight="600" text-anchor="start" letter-spacing="0.8">VERDICT &amp; FOCUS</text><rect x="352" y="88" width="228.6" height="6" rx="3" fill="rgba(69,158,107,0.30)"/><rect x="352" y="104" width="182.88" height="6" rx="3" fill="#1e2022"/><rect x="352" y="120" width="213.35999999999999" height="6" rx="3" fill="#1e2022"/><rect x="352" y="136" width="152.4" height="6" rx="3" fill="#1e2022"/><text x="352" y="166" fill="#6b7073" font-size="10" font-family="'Inter', system-ui, -apple-system, sans-serif" font-weight="400" text-anchor="start">One line on what to work on today</text><rect x="640" y="48" width="272" height="132" rx="8" fill="#101113" stroke="#2a2d2f" stroke-width="1"/><text x="658" y="70" fill="#6b7073" font-size="9" font-family="'Inter', system-ui, -apple-system, sans-serif" font-weight="600" text-anchor="start" letter-spacing="0.8">BEHAVIOURAL FINGERPRINT</text><polygon points="776.0,86.0 814.0,113.6 799.5,158.4 752.5,158.4 738.0,113.6" fill="none" stroke="#1e2022" stroke-width="1"/><polygon points="776.0,98.0 802.6,117.3 792.5,148.7 759.5,148.7 749.4,117.3" fill="none" stroke="#1e2022" stroke-width="1"/><polygon points="776.0,109.2 792.0,120.8 785.9,139.6 766.1,139.6 760.0,120.8" fill="none" stroke="#1e2022" stroke-width="1"/><polygon points="776.0,92.0 795.0,119.8 792.5,148.7 766.6,138.9 752.4,118.3" fill="rgba(69,158,107,0.10)" stroke="#459e6b" stroke-width="1.4"/><rect x="28" y="196" width="596" height="152" rx="8" fill="#101113" stroke="#2a2d2f" stroke-width="1"/><text x="46" y="218" fill="#6b7073" font-size="9" font-family="'Inter', system-ui, -apple-system, sans-serif" font-weight="600" text-anchor="start" letter-spacing="0.8">PATTERNS THAT KEEP REPEATING</text><text x="46" y="248" fill="#9aa0a3" font-size="11" font-family="'Inter', system-ui, -apple-system, sans-serif" font-weight="400" text-anchor="start">Entering before the setup completes</text><rect x="400" y="240" width="140" height="8" rx="4" fill="#1e2022" stroke="none" stroke-width="0"/><rect x="400" y="240" width="123.2" height="8" rx="4" fill="#9aa0a3" stroke="none" stroke-width="0"/><text x="556" y="248" fill="#6b7073" font-size="9.5" font-family="'Inter', system-ui, -apple-system, sans-serif" font-weight="400" text-anchor="start">seen often</text><text x="46" y="276" fill="#9aa0a3" font-size="11" font-family="'Inter', system-ui, -apple-system, sans-serif" font-weight="400" text-anchor="start">Holding losers past the stop</text><rect x="400" y="268" width="140" height="8" rx="4" fill="#1e2022" stroke="none" stroke-width="0"/><rect x="400" y="268" width="92.4" height="8" rx="4" fill="#6b7073" stroke="none" stroke-width="0"/><text x="556" y="276" fill="#6b7073" font-size="9.5" font-family="'Inter', system-ui, -apple-system, sans-serif" font-weight="400" text-anchor="start">seen often</text><text x="46" y="304" fill="#9aa0a3" font-size="11" font-family="'Inter', system-ui, -apple-system, sans-serif" font-weight="400" text-anchor="start">Sizing up after a loss</text><rect x="400" y="296" width="140" height="8" rx="4" fill="#1e2022" stroke="none" stroke-width="0"/><rect x="400" y="296" width="61.6" height="8" rx="4" fill="#3d4144" stroke="none" stroke-width="0"/><text x="556" y="304" fill="#6b7073" font-size="9.5" font-family="'Inter', system-ui, -apple-system, sans-serif" font-weight="400" text-anchor="start">seen sometimes</text><text x="46" y="332" fill="#9aa0a3" font-size="11" font-family="'Inter', system-ui, -apple-system, sans-serif" font-weight="400" text-anchor="start">Trading the first ten minutes</text><rect x="400" y="324" width="140" height="8" rx="4" fill="#1e2022" stroke="none" stroke-width="0"/><rect x="400" y="324" width="42" height="8" rx="4" fill="#3d4144" stroke="none" stroke-width="0"/><text x="556" y="332" fill="#6b7073" font-size="9.5" font-family="'Inter', system-ui, -apple-system, sans-serif" font-weight="400" text-anchor="start">seen rarely</text><rect x="640" y="196" width="272" height="152" rx="8" fill="#101113" stroke="#2a2d2f" stroke-width="1"/><text x="658" y="218" fill="#6b7073" font-size="9" font-family="'Inter', system-ui, -apple-system, sans-serif" font-weight="600" text-anchor="start" letter-spacing="0.8">WHEN YOU TRADE WELL</text><rect x="660" y="232" width="24" height="15" rx="3" fill="#1e2022" stroke="none" stroke-width="0"/><rect x="690" y="232" width="24" height="15" rx="3" fill="#459e6b" stroke="none" stroke-width="0"/><rect x="720" y="232" width="24" height="15" rx="3" fill="#459e6b" stroke="none" stroke-width="0"/><rect x="750" y="232" width="24" height="15" rx="3" fill="#1e2022" stroke="none" stroke-width="0"/><rect x="780" y="232" width="24" height="15" rx="3" fill="#1e2022" stroke="none" stroke-width="0"/><rect x="810" y="232" width="24" height="15" rx="3" fill="#459e6b" stroke="none" stroke-width="0"/><rect x="840" y="232" width="24" height="15" rx="3" fill="#459e6b" stroke="none" stroke-width="0"/><rect x="870" y="232" width="24" height="15" rx="3" fill="#1e2022" stroke="none" stroke-width="0"/><rect x="660" y="252" width="24" height="15" rx="3" fill="#459e6b" stroke="none" stroke-width="0"/><rect x="690" y="252" width="24" height="15" rx="3" fill="rgba(69,158,107,0.10)" stroke="none" stroke-width="0"/><rect x="720" y="252" width="24" height="15" rx="3" fill="#1e2022" stroke="none" stroke-width="0"/><rect x="750" y="252" width="24" height="15" rx="3" fill="#459e6b" stroke="none" stroke-width="0"/><rect x="780" y="252" width="24" height="15" rx="3" fill="#459e6b" stroke="none" stroke-width="0"/><rect x="810" y="252" width="24" height="15" rx="3" fill="#1e2022" stroke="none" stroke-width="0"/><rect x="840" y="252" width="24" height="15" rx="3" fill="rgba(69,158,107,0.10)" stroke="none" stroke-width="0"/><rect x="870" y="252" width="24" height="15" rx="3" fill="#459e6b" stroke="none" stroke-width="0"/><rect x="660" y="272" width="24" height="15" rx="3" fill="#1e2022" stroke="none" stroke-width="0"/><rect x="690" y="272" width="24" height="15" rx="3" fill="#459e6b" stroke="none" stroke-width="0"/><rect x="720" y="272" width="24" height="15" rx="3" fill="#459e6b" stroke="none" stroke-width="0"/><rect x="750" y="272" width="24" height="15" rx="3" fill="#1e2022" stroke="none" stroke-width="0"/><rect x="780" y="272" width="24" height="15" rx="3" fill="rgba(69,158,107,0.10)" stroke="none" stroke-width="0"/><rect x="810" y="272" width="24" height="15" rx="3" fill="#459e6b" stroke="none" stroke-width="0"/><rect x="840" y="272" width="24" height="15" rx="3" fill="rgba(69,158,107,0.10)" stroke="none" stroke-width="0"/><rect x="870" y="272" width="24" height="15" rx="3" fill="#1e2022" stroke="none" stroke-width="0"/><rect x="660" y="292" width="24" height="15" rx="3" fill="#459e6b" stroke="none" stroke-width="0"/><rect x="690" y="292" width="24" height="15" rx="3" fill="#1e2022" stroke="none" stroke-width="0"/><rect x="720" y="292" width="24" height="15" rx="3" fill="rgba(69,158,107,0.10)" stroke="none" stroke-width="0"/><rect x="750" y="292" width="24" height="15" rx="3" fill="#459e6b" stroke="none" stroke-width="0"/><rect x="780" y="292" width="24" height="15" rx="3" fill="rgba(69,158,107,0.10)" stroke="none" stroke-width="0"/><rect x="810" y="292" width="24" height="15" rx="3" fill="#1e2022" stroke="none" stroke-width="0"/><rect x="840" y="292" width="24" height="15" rx="3" fill="#459e6b" stroke="none" stroke-width="0"/><rect x="870" y="292" width="24" height="15" rx="3" fill="#459e6b" stroke="none" stroke-width="0"/><rect x="660" y="312" width="24" height="15" rx="3" fill="rgba(69,158,107,0.10)" stroke="none" stroke-width="0"/><rect x="690" y="312" width="24" height="15" rx="3" fill="#459e6b" stroke="none" stroke-width="0"/><rect x="720" y="312" width="24" height="15" rx="3" fill="rgba(69,158,107,0.10)" stroke="none" stroke-width="0"/><rect x="750" y="312" width="24" height="15" rx="3" fill="#1e2022" stroke="none" stroke-width="0"/><rect x="780" y="312" width="24" height="15" rx="3" fill="#459e6b" stroke="none" stroke-width="0"/><rect x="810" y="312" width="24" height="15" rx="3" fill="#459e6b" stroke="none" stroke-width="0"/><rect x="840" y="312" width="24" height="15" rx="3" fill="#1e2022" stroke="none" stroke-width="0"/><rect x="870" y="312" width="24" height="15" rx="3" fill="rgba(69,158,107,0.10)" stroke="none" stroke-width="0"/><text x="658" y="340" fill="#6b7073" font-size="9.5" font-family="'Inter', system-ui, -apple-system, sans-serif" font-weight="400" text-anchor="start">Win rate by weekday and hour</text><rect x="28" y="364" width="884" height="108" rx="8" fill="#101113" stroke="#2a2d2f" stroke-width="1"/><text x="46" y="386" fill="#6b7073" font-size="9" font-family="'Inter', system-ui, -apple-system, sans-serif" font-weight="600" text-anchor="start" letter-spacing="0.8">A YEAR OF TRADING ACTIVITY</text><rect x="46" y="398" width="16" height="10" rx="2" fill="#161719" stroke="none" stroke-width="0"/><rect x="46" y="411" width="16" height="10" rx="2" fill="#459e6b" stroke="none" stroke-width="0"/><rect x="46" y="424" width="16" height="10" rx="2" fill="#1e2022" stroke="none" stroke-width="0"/><rect x="46" y="437" width="16" height="10" rx="2" fill="rgba(69,158,107,0.10)" stroke="none" stroke-width="0"/><rect x="46" y="450" width="16" height="10" rx="2" fill="#459e6b" stroke="none" stroke-width="0"/><rect x="66.5" y="398" width="16" height="10" rx="2" fill="rgba(69,158,107,0.10)" stroke="none" stroke-width="0"/><rect x="66.5" y="411" width="16" height="10" rx="2" fill="#459e6b" stroke="none" stroke-width="0"/><rect x="66.5" y="424" width="16" height="10" rx="2" fill="#161719" stroke="none" stroke-width="0"/><rect x="66.5" y="437" width="16" height="10" rx="2" fill="#459e6b" stroke="none" stroke-width="0"/><rect x="66.5" y="450" width="16" height="10" rx="2" fill="#1e2022" stroke="none" stroke-width="0"/><rect x="87" y="398" width="16" height="10" rx="2" fill="#459e6b" stroke="none" stroke-width="0"/><rect x="87" y="411" width="16" height="10" rx="2" fill="rgba(69,158,107,0.10)" stroke="none" stroke-width="0"/><rect x="87" y="424" width="16" height="10" rx="2" fill="rgba(69,158,107,0.10)" stroke="none" stroke-width="0"/><rect x="87" y="437" width="16" height="10" rx="2" fill="#459e6b" stroke="none" stroke-width="0"/><rect x="87" y="450" width="16" height="10" rx="2" fill="#161719" stroke="none" stroke-width="0"/><rect x="107.5" y="398" width="16" height="10" rx="2" fill="#459e6b" stroke="none" stroke-width="0"/><rect x="107.5" y="411" width="16" height="10" rx="2" fill="#161719" stroke="none" stroke-width="0"/><rect x="107.5" y="424" width="16" height="10" rx="2" fill="#459e6b" stroke="none" stroke-width="0"/><rect x="107.5" y="437" width="16" height="10" rx="2" fill="rgba(69,158,107,0.10)" stroke="none" stroke-width="0"/><rect x="107.5" y="450" width="16" height="10" rx="2" fill="rgba(69,158,107,0.10)" stroke="none" stroke-width="0"/><rect x="128" y="398" width="16" height="10" rx="2" fill="rgba(69,158,107,0.10)" stroke="none" stroke-width="0"/><rect x="128" y="411" width="16" height="10" rx="2" fill="#1e2022" stroke="none" stroke-width="0"/><rect x="128" y="424" width="16" height="10" rx="2" fill="#459e6b" stroke="none" stroke-width="0"/><rect x="128" y="437" width="16" height="10" rx="2" fill="#161719" stroke="none" stroke-width="0"/><rect x="128" y="450" width="16" height="10" rx="2" fill="#459e6b" stroke="none" stroke-width="0"/><rect x="148.5" y="398" width="16" height="10" rx="2" fill="#161719" stroke="none" stroke-width="0"/><rect x="148.5" y="411" width="16" height="10" rx="2" fill="#459e6b" stroke="none" stroke-width="0"/><rect x="148.5" y="424" width="16" height="10" rx="2" fill="rgba(69,158,107,0.10)" stroke="none" stroke-width="0"/><rect x="148.5" y="437" width="16" height="10" rx="2" fill="rgba(69,158,107,0.10)" stroke="none" stroke-width="0"/><rect x="148.5" y="450" width="16" height="10" rx="2" fill="#459e6b" stroke="none" stroke-width="0"/><rect x="169" y="398" width="16" height="10" rx="2" fill="#1e2022" stroke="none" stroke-width="0"/><rect x="169" y="411" width="16" height="10" rx="2" fill="#459e6b" stroke="none" stroke-width="0"/><rect x="169" y="424" width="16" height="10" rx="2" fill="#161719" stroke="none" stroke-width="0"/><rect x="169" y="437" width="16" height="10" rx="2" fill="#459e6b" stroke="none" stroke-width="0"/><rect x="169" y="450" width="16" height="10" rx="2" fill="rgba(69,158,107,0.10)" stroke="none" stroke-width="0"/><rect x="189.5" y="398" width="16" height="10" rx="2" fill="#459e6b" stroke="none" stroke-width="0"/><rect x="189.5" y="411" width="16" height="10" rx="2" fill="rgba(69,158,107,0.10)" stroke="none" stroke-width="0"/><rect x="189.5" y="424" width="16" height="10" rx="2" fill="#1e2022" stroke="none" stroke-width="0"/><rect x="189.5" y="437" width="16" height="10" rx="2" fill="#459e6b" stroke="none" stroke-width="0"/><rect x="189.5" y="450" width="16" height="10" rx="2" fill="#161719" stroke="none" stroke-width="0"/><rect x="210" y="398" width="16" height="10" rx="2" fill="#459e6b" stroke="none" stroke-width="0"/><rect x="210" y="411" width="16" height="10" rx="2" fill="#161719" stroke="none" stroke-width="0"/><rect x="210" y="424" width="16" height="10" rx="2" fill="#459e6b" stroke="none" stroke-width="0"/><rect x="210" y="437" width="16" height="10" rx="2" fill="rgba(69,158,107,0.10)" stroke="none" stroke-width="0"/><rect x="210" y="450" width="16" height="10" rx="2" fill="#1e2022" stroke="none" stroke-width="0"/><rect x="230.5" y="398" width="16" height="10" rx="2" fill="rgba(69,158,107,0.10)" stroke="none" stroke-width="0"/><rect x="230.5" y="411" width="16" height="10" rx="2" fill="#1e2022" stroke="none" stroke-width="0"/><rect x="230.5" y="424" width="16" height="10" rx="2" fill="#459e6b" stroke="none" stroke-width="0"/><rect x="230.5" y="437" width="16" height="10" rx="2" fill="#161719" stroke="none" stroke-width="0"/><rect x="230.5" y="450" width="16" height="10" rx="2" fill="#459e6b" stroke="none" stroke-width="0"/><rect x="251" y="398" width="16" height="10" rx="2" fill="#161719" stroke="none" stroke-width="0"/><rect x="251" y="411" width="16" height="10" rx="2" fill="#459e6b" stroke="none" stroke-width="0"/><rect x="251" y="424" width="16" height="10" rx="2" fill="rgba(69,158,107,0.10)" stroke="none" stroke-width="0"/><rect x="251" y="437" width="16" height="10" rx="2" fill="#1e2022" stroke="none" stroke-width="0"/><rect x="251" y="450" width="16" height="10" rx="2" fill="#459e6b" stroke="none" stroke-width="0"/><rect x="271.5" y="398" width="16" height="10" rx="2" fill="#1e2022" stroke="none" stroke-width="0"/><rect x="271.5" y="411" width="16" height="10" rx="2" fill="#459e6b" stroke="none" stroke-width="0"/><rect x="271.5" y="424" width="16" height="10" rx="2" fill="#161719" stroke="none" stroke-width="0"/><rect x="271.5" y="437" width="16" height="10" rx="2" fill="#459e6b" stroke="none" stroke-width="0"/><rect x="271.5" y="450" width="16" height="10" rx="2" fill="rgba(69,158,107,0.10)" stroke="none" stroke-width="0"/><rect x="292" y="398" width="16" height="10" rx="2" fill="rgba(69,158,107,0.10)" stroke="none" stroke-width="0"/><rect x="292" y="411" width="16" height="10" rx="2" fill="rgba(69,158,107,0.10)" stroke="none" stroke-width="0"/><rect x="292" y="424" width="16" height="10" rx="2" fill="#1e2022" stroke="none" stroke-width="0"/><rect x="292" y="437" width="16" height="10" rx="2" fill="#459e6b" stroke="none" stroke-width="0"/><rect x="292" y="450" width="16" height="10" rx="2" fill="#161719" stroke="none" stroke-width="0"/><rect x="312.5" y="398" width="16" height="10" rx="2" fill="#459e6b" stroke="none" stroke-width="0"/><rect x="312.5" y="411" width="16" height="10" rx="2" fill="#1e2022" stroke="none" stroke-width="0"/><rect x="312.5" y="424" width="16" height="10" rx="2" fill="#459e6b" stroke="none" stroke-width="0"/><rect x="312.5" y="437" width="16" height="10" rx="2" fill="rgba(69,158,107,0.10)" stroke="none" stroke-width="0"/><rect x="312.5" y="450" width="16" height="10" rx="2" fill="#1e2022" stroke="none" stroke-width="0"/><rect x="333" y="398" width="16" height="10" rx="2" fill="#459e6b" stroke="none" stroke-width="0"/><rect x="333" y="411" width="16" height="10" rx="2" fill="#161719" stroke="none" stroke-width="0"/><rect x="333" y="424" width="16" height="10" rx="2" fill="#459e6b" stroke="none" stroke-width="0"/><rect x="333" y="437" width="16" height="10" rx="2" fill="#161719" stroke="none" stroke-width="0"/><rect x="333" y="450" width="16" height="10" rx="2" fill="#459e6b" stroke="none" stroke-width="0"/><rect x="353.5" y="398" width="16" height="10" rx="2" fill="#1e2022" stroke="none" stroke-width="0"/><rect x="353.5" y="411" width="16" height="10" rx="2" fill="rgba(69,158,107,0.10)" stroke="none" stroke-width="0"/><rect x="353.5" y="424" width="16" height="10" rx="2" fill="#459e6b" stroke="none" stroke-width="0"/><rect x="353.5" y="437" width="16" height="10" rx="2" fill="#1e2022" stroke="none" stroke-width="0"/><rect x="353.5" y="450" width="16" height="10" rx="2" fill="#459e6b" stroke="none" stroke-width="0"/><rect x="374" y="398" width="16" height="10" rx="2" fill="#161719" stroke="none" stroke-width="0"/><rect x="374" y="411" width="16" height="10" rx="2" fill="#459e6b" stroke="none" stroke-width="0"/><rect x="374" y="424" width="16" height="10" rx="2" fill="#1e2022" stroke="none" stroke-width="0"/><rect x="374" y="437" width="16" height="10" rx="2" fill="#459e6b" stroke="none" stroke-width="0"/><rect x="374" y="450" width="16" height="10" rx="2" fill="rgba(69,158,107,0.10)" stroke="none" stroke-width="0"/><rect x="394.5" y="398" width="16" height="10" rx="2" fill="rgba(69,158,107,0.10)" stroke="none" stroke-width="0"/><rect x="394.5" y="411" width="16" height="10" rx="2" fill="#459e6b" stroke="none" stroke-width="0"/><rect x="394.5" y="424" width="16" height="10" rx="2" fill="#161719" stroke="none" stroke-width="0"/><rect x="394.5" y="437" width="16" height="10" rx="2" fill="#459e6b" stroke="none" stroke-width="0"/><rect x="394.5" y="450" width="16" height="10" rx="2" fill="#1e2022" stroke="none" stroke-width="0"/><rect x="415" y="398" width="16" height="10" rx="2" fill="#459e6b" stroke="none" stroke-width="0"/><rect x="415" y="411" width="16" height="10" rx="2" fill="#1e2022" stroke="none" stroke-width="0"/><rect x="415" y="424" width="16" height="10" rx="2" fill="rgba(69,158,107,0.10)" stroke="none" stroke-width="0"/><rect x="415" y="437" width="16" height="10" rx="2" fill="#459e6b" stroke="none" stroke-width="0"/><rect x="415" y="450" width="16" height="10" rx="2" fill="#161719" stroke="none" stroke-width="0"/><rect x="435.5" y="398" width="16" height="10" rx="2" fill="#459e6b" stroke="none" stroke-width="0"/><rect x="435.5" y="411" width="16" height="10" rx="2" fill="#161719" stroke="none" stroke-width="0"/><rect x="435.5" y="424" width="16" height="10" rx="2" fill="#459e6b" stroke="none" stroke-width="0"/><rect x="435.5" y="437" width="16" height="10" rx="2" fill="#1e2022" stroke="none" stroke-width="0"/><rect x="435.5" y="450" width="16" height="10" rx="2" fill="rgba(69,158,107,0.10)" stroke="none" stroke-width="0"/><rect x="456" y="398" width="16" height="10" rx="2" fill="#1e2022" stroke="none" stroke-width="0"/><rect x="456" y="411" width="16" height="10" rx="2" fill="rgba(69,158,107,0.10)" stroke="none" stroke-width="0"/><rect x="456" y="424" width="16" height="10" rx="2" fill="#459e6b" stroke="none" stroke-width="0"/><rect x="456" y="437" width="16" height="10" rx="2" fill="#161719" stroke="none" stroke-width="0"/><rect x="456" y="450" width="16" height="10" rx="2" fill="#459e6b" stroke="none" stroke-width="0"/><rect x="476.5" y="398" width="16" height="10" rx="2" fill="#161719" stroke="none" stroke-width="0"/><rect x="476.5" y="411" width="16" height="10" rx="2" fill="#459e6b" stroke="none" stroke-width="0"/><rect x="476.5" y="424" width="16" height="10" rx="2" fill="#1e2022" stroke="none" stroke-width="0"/><rect x="476.5" y="437" width="16" height="10" rx="2" fill="rgba(69,158,107,0.10)" stroke="none" stroke-width="0"/><rect x="476.5" y="450" width="16" height="10" rx="2" fill="#459e6b" stroke="none" stroke-width="0"/><rect x="497" y="398" width="16" height="10" rx="2" fill="rgba(69,158,107,0.10)" stroke="none" stroke-width="0"/><rect x="497" y="411" width="16" height="10" rx="2" fill="#459e6b" stroke="none" stroke-width="0"/><rect x="497" y="424" width="16" height="10" rx="2" fill="#161719" stroke="none" stroke-width="0"/><rect x="497" y="437" width="16" height="10" rx="2" fill="#459e6b" stroke="none" stroke-width="0"/><rect x="497" y="450" width="16" height="10" rx="2" fill="#1e2022" stroke="none" stroke-width="0"/><rect x="517.5" y="398" width="16" height="10" rx="2" fill="#459e6b" stroke="none" stroke-width="0"/><rect x="517.5" y="411" width="16" height="10" rx="2" fill="rgba(69,158,107,0.10)" stroke="none" stroke-width="0"/><rect x="517.5" y="424" width="16" height="10" rx="2" fill="rgba(69,158,107,0.10)" stroke="none" stroke-width="0"/><rect x="517.5" y="437" width="16" height="10" rx="2" fill="#459e6b" stroke="none" stroke-width="0"/><rect x="517.5" y="450" width="16" height="10" rx="2" fill="#161719" stroke="none" stroke-width="0"/><rect x="538" y="398" width="16" height="10" rx="2" fill="#459e6b" stroke="none" stroke-width="0"/><rect x="538" y="411" width="16" height="10" rx="2" fill="#161719" stroke="none" stroke-width="0"/><rect x="538" y="424" width="16" height="10" rx="2" fill="#459e6b" stroke="none" stroke-width="0"/><rect x="538" y="437" width="16" height="10" rx="2" fill="#1e2022" stroke="none" stroke-width="0"/><rect x="538" y="450" width="16" height="10" rx="2" fill="rgba(69,158,107,0.10)" stroke="none" stroke-width="0"/><rect x="558.5" y="398" width="16" height="10" rx="2" fill="rgba(69,158,107,0.10)" stroke="none" stroke-width="0"/><rect x="558.5" y="411" width="16" height="10" rx="2" fill="rgba(69,158,107,0.10)" stroke="none" stroke-width="0"/><rect x="558.5" y="424" width="16" height="10" rx="2" fill="#459e6b" stroke="none" stroke-width="0"/><rect x="558.5" y="437" width="16" height="10" rx="2" fill="#161719" stroke="none" stroke-width="0"/><rect x="558.5" y="450" width="16" height="10" rx="2" fill="#459e6b" stroke="none" stroke-width="0"/><rect x="579" y="398" width="16" height="10" rx="2" fill="#161719" stroke="none" stroke-width="0"/><rect x="579" y="411" width="16" height="10" rx="2" fill="#459e6b" stroke="none" stroke-width="0"/><rect x="579" y="424" width="16" height="10" rx="2" fill="rgba(69,158,107,0.10)" stroke="none" stroke-width="0"/><rect x="579" y="437" width="16" height="10" rx="2" fill="rgba(69,158,107,0.10)" stroke="none" stroke-width="0"/><rect x="579" y="450" width="16" height="10" rx="2" fill="#459e6b" stroke="none" stroke-width="0"/><rect x="599.5" y="398" width="16" height="10" rx="2" fill="#1e2022" stroke="none" stroke-width="0"/><rect x="599.5" y="411" width="16" height="10" rx="2" fill="#459e6b" stroke="none" stroke-width="0"/><rect x="599.5" y="424" width="16" height="10" rx="2" fill="#161719" stroke="none" stroke-width="0"/><rect x="599.5" y="437" width="16" height="10" rx="2" fill="#459e6b" stroke="none" stroke-width="0"/><rect x="599.5" y="450" width="16" height="10" rx="2" fill="rgba(69,158,107,0.10)" stroke="none" stroke-width="0"/><rect x="620" y="398" width="16" height="10" rx="2" fill="#459e6b" stroke="none" stroke-width="0"/><rect x="620" y="411" width="16" height="10" rx="2" fill="rgba(69,158,107,0.10)" stroke="none" stroke-width="0"/><rect x="620" y="424" width="16" height="10" rx="2" fill="#1e2022" stroke="none" stroke-width="0"/><rect x="620" y="437" width="16" height="10" rx="2" fill="#459e6b" stroke="none" stroke-width="0"/><rect x="620" y="450" width="16" height="10" rx="2" fill="#161719" stroke="none" stroke-width="0"/><rect x="640.5" y="398" width="16" height="10" rx="2" fill="#459e6b" stroke="none" stroke-width="0"/><rect x="640.5" y="411" width="16" height="10" rx="2" fill="#161719" stroke="none" stroke-width="0"/><rect x="640.5" y="424" width="16" height="10" rx="2" fill="#459e6b" stroke="none" stroke-width="0"/><rect x="640.5" y="437" width="16" height="10" rx="2" fill="rgba(69,158,107,0.10)" stroke="none" stroke-width="0"/><rect x="640.5" y="450" width="16" height="10" rx="2" fill="rgba(69,158,107,0.10)" stroke="none" stroke-width="0"/><rect x="661" y="398" width="16" height="10" rx="2" fill="rgba(69,158,107,0.10)" stroke="none" stroke-width="0"/><rect x="661" y="411" width="16" height="10" rx="2" fill="#1e2022" stroke="none" stroke-width="0"/><rect x="661" y="424" width="16" height="10" rx="2" fill="#459e6b" stroke="none" stroke-width="0"/><rect x="661" y="437" width="16" height="10" rx="2" fill="#161719" stroke="none" stroke-width="0"/><rect x="661" y="450" width="16" height="10" rx="2" fill="#459e6b" stroke="none" stroke-width="0"/><rect x="681.5" y="398" width="16" height="10" rx="2" fill="#161719" stroke="none" stroke-width="0"/><rect x="681.5" y="411" width="16" height="10" rx="2" fill="#459e6b" stroke="none" stroke-width="0"/><rect x="681.5" y="424" width="16" height="10" rx="2" fill="rgba(69,158,107,0.10)" stroke="none" stroke-width="0"/><rect x="681.5" y="437" width="16" height="10" rx="2" fill="#1e2022" stroke="none" stroke-width="0"/><rect x="681.5" y="450" width="16" height="10" rx="2" fill="#459e6b" stroke="none" stroke-width="0"/><rect x="702" y="398" width="16" height="10" rx="2" fill="#1e2022" stroke="none" stroke-width="0"/><rect x="702" y="411" width="16" height="10" rx="2" fill="#459e6b" stroke="none" stroke-width="0"/><rect x="702" y="424" width="16" height="10" rx="2" fill="#161719" stroke="none" stroke-width="0"/><rect x="702" y="437" width="16" height="10" rx="2" fill="#459e6b" stroke="none" stroke-width="0"/><rect x="702" y="450" width="16" height="10" rx="2" fill="rgba(69,158,107,0.10)" stroke="none" stroke-width="0"/><rect x="722.5" y="398" width="16" height="10" rx="2" fill="#459e6b" stroke="none" stroke-width="0"/><rect x="722.5" y="411" width="16" height="10" rx="2" fill="rgba(69,158,107,0.10)" stroke="none" stroke-width="0"/><rect x="722.5" y="424" width="16" height="10" rx="2" fill="#1e2022" stroke="none" stroke-width="0"/><rect x="722.5" y="437" width="16" height="10" rx="2" fill="#459e6b" stroke="none" stroke-width="0"/><rect x="722.5" y="450" width="16" height="10" rx="2" fill="#161719" stroke="none" stroke-width="0"/><rect x="743" y="398" width="16" height="10" rx="2" fill="#459e6b" stroke="none" stroke-width="0"/><rect x="743" y="411" width="16" height="10" rx="2" fill="#161719" stroke="none" stroke-width="0"/><rect x="743" y="424" width="16" height="10" rx="2" fill="#459e6b" stroke="none" stroke-width="0"/><rect x="743" y="437" width="16" height="10" rx="2" fill="rgba(69,158,107,0.10)" stroke="none" stroke-width="0"/><rect x="743" y="450" width="16" height="10" rx="2" fill="#1e2022" stroke="none" stroke-width="0"/><rect x="763.5" y="398" width="16" height="10" rx="2" fill="#459e6b" stroke="none" stroke-width="0"/><rect x="763.5" y="411" width="16" height="10" rx="2" fill="#1e2022" stroke="none" stroke-width="0"/><rect x="763.5" y="424" width="16" height="10" rx="2" fill="#459e6b" stroke="none" stroke-width="0"/><rect x="763.5" y="437" width="16" height="10" rx="2" fill="#161719" stroke="none" stroke-width="0"/><rect x="763.5" y="450" width="16" height="10" rx="2" fill="#459e6b" stroke="none" stroke-width="0"/><rect x="784" y="398" width="16" height="10" rx="2" fill="#1e2022" stroke="none" stroke-width="0"/><rect x="784" y="411" width="16" height="10" rx="2" fill="rgba(69,158,107,0.10)" stroke="none" stroke-width="0"/><rect x="784" y="424" width="16" height="10" rx="2" fill="#459e6b" stroke="none" stroke-width="0"/><rect x="784" y="437" width="16" height="10" rx="2" fill="#1e2022" stroke="none" stroke-width="0"/><rect x="784" y="450" width="16" height="10" rx="2" fill="#459e6b" stroke="none" stroke-width="0"/><rect x="804.5" y="398" width="16" height="10" rx="2" fill="#161719" stroke="none" stroke-width="0"/><rect x="804.5" y="411" width="16" height="10" rx="2" fill="#459e6b" stroke="none" stroke-width="0"/><rect x="804.5" y="424" width="16" height="10" rx="2" fill="#1e2022" stroke="none" stroke-width="0"/><rect x="804.5" y="437" width="16" height="10" rx="2" fill="#459e6b" stroke="none" stroke-width="0"/><rect x="804.5" y="450" width="16" height="10" rx="2" fill="rgba(69,158,107,0.10)" stroke="none" stroke-width="0"/><rect x="825" y="398" width="16" height="10" rx="2" fill="rgba(69,158,107,0.10)" stroke="none" stroke-width="0"/><rect x="825" y="411" width="16" height="10" rx="2" fill="#459e6b" stroke="none" stroke-width="0"/><rect x="825" y="424" width="16" height="10" rx="2" fill="#161719" stroke="none" stroke-width="0"/><rect x="825" y="437" width="16" height="10" rx="2" fill="#459e6b" stroke="none" stroke-width="0"/><rect x="825" y="450" width="16" height="10" rx="2" fill="#161719" stroke="none" stroke-width="0"/><rect x="845.5" y="398" width="16" height="10" rx="2" fill="#459e6b" stroke="none" stroke-width="0"/><rect x="845.5" y="411" width="16" height="10" rx="2" fill="#1e2022" stroke="none" stroke-width="0"/><rect x="845.5" y="424" width="16" height="10" rx="2" fill="rgba(69,158,107,0.10)" stroke="none" stroke-width="0"/><rect x="845.5" y="437" width="16" height="10" rx="2" fill="#459e6b" stroke="none" stroke-width="0"/><rect x="845.5" y="450" width="16" height="10" rx="2" fill="#1e2022" stroke="none" stroke-width="0"/><rect x="866" y="398" width="16" height="10" rx="2" fill="#459e6b" stroke="none" stroke-width="0"/><rect x="866" y="411" width="16" height="10" rx="2" fill="#161719" stroke="none" stroke-width="0"/><rect x="866" y="424" width="16" height="10" rx="2" fill="#459e6b" stroke="none" stroke-width="0"/><rect x="866" y="437" width="16" height="10" rx="2" fill="#1e2022" stroke="none" stroke-width="0"/><rect x="866" y="450" width="16" height="10" rx="2" fill="rgba(69,158,107,0.10)" stroke="none" stroke-width="0"/><rect x="886.5" y="398" width="16" height="10" rx="2" fill="#1e2022" stroke="none" stroke-width="0"/><rect x="886.5" y="411" width="16" height="10" rx="2" fill="rgba(69,158,107,0.10)" stroke="none" stroke-width="0"/><rect x="886.5" y="424" width="16" height="10" rx="2" fill="#459e6b" stroke="none" stroke-width="0"/><rect x="886.5" y="437" width="16" height="10" rx="2" fill="#161719" stroke="none" stroke-width="0"/><rect x="886.5" y="450" width="16" height="10" rx="2" fill="#459e6b" stroke="none" stroke-width="0"/><text x="46" y="490" fill="#6b7073" font-size="10.5" font-family="'Inter', system-ui, -apple-system, sans-serif" font-weight="400" text-anchor="start">No figures are shown here. Every panel describes behaviour, not balances.</text>
</svg>
